<svg id="Слой_1" data-name="Слой 1" xmlns="http://www.w3.org/2000/svg" viewBox="0 0 749.79 684.47"><path d="M338.23,698.79c-83.82-70.63-95.8-80.56-99.06-81.51-1.91-.68-11.84-2.18-21.91-3.41-95.12-12-171-38-202.08-69.26-12.25-12.38-15-18.78-15-35.52,0-11.56.55-14.56,3.27-20.13C10.55,474.53,26.2,461.6,54,447.18c8-4.22,20.69-9.53,22.59-9.53A3.09,3.09,0,0,0,79,436.43c.55-.68-12-74.16-27.76-163.16S22.67,108.89,22.67,105.9v-5.58L29.74,99c37.42-7.49,340.33-60,345.77-60,5.18,0,325.64,55.52,349.72,60.69,4.63,1,4.63,3.67.82,23-6.94,34.84-55.66,311.76-55,313.39a3.18,3.18,0,0,0,2.72,1.63c3.94,0,33.34,14.7,45,22.59,12.65,8.58,21.36,17.15,27.21,27.08,3.68,6.4,4,7.62,4,21.77s-.27,15.38-4,21.78c-23.54,40-112.4,72.53-234.73,85.86l-8.57.95L472.54,643C378,722.6,377,723.42,372.11,723.42c-4.08,0-8.57-3.27-33.88-24.63Zm52-38.65c9.12-7.48,22.73-18.78,30.35-25.17L434.3,623.4H310.47L340.81,649c16.88,14,31,25.45,31.71,25.18s8.57-6.53,17.69-14ZM452,500.93c27.62-2.86,41.1-5,81-13.06,16.6-3.41,43.68-13.07,61.23-21.91,16.47-8.17,26.67-16.33,33.34-26.26l5.17-7.9,26.4-149.14c14.42-82.05,26.26-149.82,26.26-150.5s-65.45-13.06-155-28.71l-155-27.35-155,27.21C135.2,118.28,65.26,130.8,65,131.07s11.15,67.36,25.58,149C119.14,442,117.78,436,129.35,447.86c28.17,28.58,108.59,50.89,198.81,55.11,31.71,1.5,99.06.41,123.83-2Z" transform="translate(-0.21 -38.95)"/><path d="M295.5,449.76c-56.06-5.3-92-12.38-125.87-25C149.08,417,125.54,403,120.1,395.2s.13-52.12,11.56-90.22c2.05-6.94,10.89-32.39,12.8-36.74,15.51-35.79,30.61-62.6,49.53-87.77,15.24-20.28,31.16-35.11,46.4-43,7.21-3.81,8.16-3.95,26.53-3.81,22.46,0,25.32,1,55.25,17.41,25.58,14,36.61,17.69,52.94,17.69,15.78,0,28-3.81,46.67-14.28s22.59-12.66,32.93-16.88c8.85-3.67,10.75-3.94,28.58-3.94l19-.14,10.75,6.12c19.19,10.89,41,34.43,60.69,65.87,7.48,12,22.59,40.55,27.62,52.52,9.12,21.91,15.24,38,17.15,46,.68,2.72,2.45,9.39,4,14.56,4.08,14,8.3,41.09,9.38,58.78l.82,15.51-4,4.09c-5.44,5.71-25.31,18.78-35.24,23.27-37,16.46-72,24.63-129.95,30.34-31.16,3-132.81,2.59-168.06-.82Z" transform="translate(-0.21 -38.95)"/></svg>